# xmcd CD database file
#
# Track frame offsets:
#	150
#	18383
#	36413
#	53950
#	71490
#	90443
#	104845
#	126160
#	141138
#	157753
#
# Disc length: 2414 seconds
#
# Revision: 0
# Processed by: cddbd v1.4PL0 Copyright (c) Steve Scherf et al.
# Submitted via: CDex 1.40Release
#
DISCID=85096c0a
DTITLE=Charlie Daniels Band - The Best Of The Charlie Daniels Band
DYEAR=1993
DGENRE=Country
TTITLE0=Long Haired Country Boy
TTITLE1=The South's Gonna Do It Again
TTITLE2=Still In Saigon
TTITLE3=Behind Your Eyes
TTITLE4=Ragin Cajun
TTITLE5=Mississippi
TTITLE6=Lonesome Boy From Dixie
TTITLE7=In America
TTITLE8=Drinkin' My Baby Goodbye
TTITLE9=Carolina (I Remember You)
EXTD=YEAR: 1993 ID3G: 2
EXTT0=
EXTT1=
EXTT2=
EXTT3=
EXTT4=
EXTT5=
EXTT6=
EXTT7=
EXTT8=
EXTT9=
PLAYORDER=
